<svg width="23" height="40" viewBox="0 0 23 40" fill="none" xmlns="http://www.w3.org/2000/svg">
<path d="M0.935231 2.68907L0.550136 0.952379C4.18103 0.31746 7.50019 0 10.5076 0C14.7253 0 17.6777 0.653594 19.3648 1.96078C21.0885 3.23063 21.9504 5.54622 21.9504 8.90756C21.9504 14.5845 19.9883 17.8338 16.064 18.6555V18.8796C20.5751 19.6265 22.8857 22.8571 22.9957 28.5714C23.069 32.493 22.2072 35.3875 20.41 37.2549C18.6496 39.085 15.6605 40 11.4428 40C8.39874 40 4.58447 39.6825 0 39.0476L0.330082 37.2549C4.73117 37.7031 8.30705 37.9272 11.0577 37.9272C14.5053 37.9272 16.9809 37.2176 18.4846 35.7983C19.9883 34.3417 20.7401 31.8954 20.7401 28.4594C20.7401 27.2269 20.6118 26.1438 20.355 25.2101C20.135 24.239 19.7132 23.3427 19.0897 22.521C18.4662 21.662 17.531 21.0084 16.284 20.5602C15.0737 20.0747 13.57 19.8133 11.7729 19.7759H4.73117V18.0392L11.7729 17.9272C13.4967 17.8898 14.927 17.6097 16.064 17.0868C17.2009 16.5266 18.0078 15.7796 18.4846 14.8459C18.998 13.9122 19.3281 13.0345 19.4748 12.2129C19.6582 11.3539 19.7499 10.3641 19.7499 9.2437C19.6765 6.40523 18.9797 4.50047 17.6594 3.52941C16.339 2.55836 13.9001 2.07283 10.3426 2.07283C7.07842 2.07283 3.94264 2.27824 0.935231 2.68907Z" fill="#0062AA"/>
</svg>
