<svg width="35" height="46" viewBox="0 0 35 46" fill="none" xmlns="http://www.w3.org/2000/svg">
<path d="M17.5535 16.4502H18.1768C18.5491 16.4502 18.8506 16.1484 18.8506 15.7764C18.8506 15.404 18.5491 15.1025 18.1768 15.1025H17.9297V13.5861C17.9297 13.2141 17.6279 12.9122 17.2559 12.9122C16.8835 12.9122 16.582 13.2141 16.582 13.5861V15.4784C16.582 16.0143 17.0176 16.4502 17.5535 16.4502Z" fill="#0062AA"/>
<path d="M20.8234 18.8686C21.0224 18.5542 20.9287 18.1379 20.6142 17.939C20.2998 17.74 19.8836 17.8337 19.6846 18.1481C19.2764 18.7928 18.3892 19.2094 17.4237 19.2094C16.4586 19.2094 15.5711 18.7928 15.1632 18.1481C14.9643 17.8337 14.548 17.74 14.2336 17.939C13.9191 18.1379 13.8254 18.5542 14.0244 18.8686C14.6831 19.9099 15.9859 20.5571 17.4237 20.5571C18.8619 20.5571 20.1643 19.9099 20.8234 18.8686Z" fill="#0062AA"/>
<path d="M21.7578 13.6727C22.1298 13.6727 22.4316 13.3709 22.4316 12.9989V12.4462C22.4316 12.0742 22.1298 11.7723 21.7578 11.7723C21.3855 11.7723 21.084 12.0742 21.084 12.4462V12.9989C21.084 13.3709 21.3855 13.6727 21.7578 13.6727Z" fill="#0062AA"/>
<path d="M13.0918 11.7723C12.7194 11.7723 12.418 12.0742 12.418 12.4462V12.9989C12.418 13.3709 12.7194 13.6727 13.0918 13.6727C13.4638 13.6727 13.7656 13.3709 13.7656 12.9989V12.4462C13.7656 12.0742 13.4638 11.7723 13.0918 11.7723Z" fill="#0062AA"/>
<path d="M31.4295 28.7363C29.055 27.5311 26.5302 26.6362 23.9255 26.0764C23.9202 26.075 23.9149 26.0743 23.9093 26.0729C23.6924 26.0266 23.4994 25.987 23.3194 25.9522C22.382 25.7704 21.7018 24.9534 21.7018 24.0097V23.7595C22.1549 23.5415 22.6024 23.2853 23.0316 22.9856C24.5589 21.9194 26.3618 19.9337 26.5773 16.4407C27.9533 16.3256 29.0378 15.1685 29.0378 13.7629V12.8105C29.0378 12.018 28.6931 11.3045 28.146 10.8121V8.68817C28.146 3.89767 24.2487 0 19.4578 0H15.3907C10.5998 0 6.70248 3.89767 6.70248 8.68817V10.8121C6.15535 11.3045 5.81071 12.018 5.81071 12.8105V13.7629C5.81071 15.1794 6.91165 16.3435 8.30283 16.4432C8.5127 19.7821 10.332 21.7724 11.8731 22.8708C12.2882 23.1667 12.7168 23.4229 13.1467 23.6436V24.01C13.1467 24.9534 12.4662 25.7704 11.5291 25.9522C11.3494 25.987 11.1564 26.0266 10.9395 26.0729C10.9343 26.0743 10.9286 26.0754 10.923 26.0764C8.31827 26.6362 5.79352 27.5311 3.41898 28.7363C1.3101 29.8071 0 31.9412 0 34.3063V36.677C0 37.049 0.301819 37.3508 0.673828 37.3508C1.04584 37.3508 1.34766 37.049 1.34766 36.677V34.3063C1.34766 32.4515 2.37524 30.7778 4.02893 29.938C6.09042 28.8914 8.27089 28.0895 10.5194 27.5501C11.1434 29.4231 13.9528 30.7968 17.4241 30.7968C20.8953 30.7968 23.7047 29.4231 24.3291 27.5501C26.5776 28.0895 28.7577 28.8914 30.8192 29.938C32.4733 30.7778 33.5008 32.4515 33.5008 34.3063V36.6927C33.5008 37.0648 33.8023 37.3666 34.1747 37.3666C34.5467 37.3666 34.8485 37.0648 34.8485 36.6927V34.3063C34.8485 31.9412 33.5384 29.8067 31.4295 28.7363ZM27.6901 13.7629C27.6901 14.4182 27.2177 14.965 26.5959 15.0801L26.5804 11.4902C27.21 11.5993 27.6901 12.1496 27.6901 12.8105V13.7629ZM8.05014 8.68817C8.05014 4.64064 11.3431 1.34766 15.3907 1.34766H19.4578C23.5057 1.34766 26.7987 4.64064 26.7987 8.68817V10.1604C26.6941 10.1429 26.5878 10.1313 26.4797 10.126C26.4014 9.92036 26.2775 9.7326 26.1133 9.57503C25.8153 9.289 25.4233 9.14055 25.0092 9.15564C24.6088 9.17073 23.1713 9.02333 21.4232 6.49542C21.2298 6.21571 20.9245 6.04445 20.5858 6.02585C20.2433 6.00725 19.9183 6.14552 19.693 6.40558C18.3899 7.90836 16.3688 8.57832 14.9028 8.87628C13.0003 9.26233 11.2189 9.20934 10.186 9.0307C9.70523 8.94753 9.216 9.08054 8.84329 9.39569C8.61061 9.59258 8.4404 9.84596 8.34529 10.1271C8.24527 10.1327 8.147 10.1439 8.05014 10.1601V8.68817ZM7.15837 13.7629V12.8105C7.15837 12.1517 7.63567 11.6025 8.26247 11.4912L8.27931 15.0846C7.64444 14.9804 7.15837 14.4273 7.15837 13.7629ZM9.63048 15.7946L9.60626 10.6574C9.60556 10.4745 9.77612 10.3278 9.95651 10.3587C11.1097 10.5584 13.0856 10.6205 15.171 10.1969C16.7674 9.87299 18.9539 9.14651 20.4991 7.52196C22.4311 10.1843 24.1767 10.5363 25.0597 10.5026C25.1499 10.5001 25.2289 10.57 25.2292 10.6616C25.2292 10.6616 25.2507 15.789 25.251 15.7967C25.2366 18.4583 24.2308 20.5051 22.2602 21.8805C20.6409 23.0109 18.6685 23.4352 17.4672 23.4555C16.2277 23.4429 14.262 22.9182 12.6553 21.7734C10.6482 20.3426 9.63048 18.3323 9.63048 15.7946ZM17.4244 29.4491C14.7565 29.4491 12.3774 28.4742 11.8474 27.2627C13.3151 26.9496 14.3929 25.6974 14.4877 24.2217C15.63 24.627 16.6976 24.7965 17.4637 24.8032H17.4693H17.4799C18.2748 24.7909 19.2975 24.6396 20.3665 24.2933C20.4907 25.7378 21.5572 26.9545 23.0014 27.2623C22.4711 28.4742 20.092 29.4491 17.4244 29.4491Z" fill="#0062AA"/>
<path d="M34.1747 39.2638C33.8023 39.2638 33.5008 39.5657 33.5008 39.9377V44.074C33.5008 44.393 33.2411 44.6524 32.9225 44.6524H29.56V37.1988C29.56 36.8265 29.2585 36.525 28.8862 36.525C28.5142 36.525 28.2123 36.8265 28.2123 37.1988V44.6524H6.63615V37.1985C6.63615 36.8265 6.33434 36.5247 5.96233 36.5247C5.58997 36.5247 5.2885 36.8265 5.2885 37.1985V44.6524H1.92603C1.60736 44.6524 1.34766 44.393 1.34766 44.074V39.9492C1.34766 39.5772 1.04619 39.2754 0.673828 39.2754C0.301819 39.2754 0 39.5772 0 39.9492V44.074C0 45.136 0.864044 46 1.92603 46H32.9225C33.9845 46 34.8485 45.136 34.8485 44.074V39.9377C34.8485 39.5657 34.5467 39.2638 34.1747 39.2638Z" fill="#0062AA"/>
<path d="M22.5275 41.1369C23.1855 41.4629 23.9675 40.8782 24.556 40.5866C24.9978 40.368 25.44 40.149 25.8826 39.93C26.2367 39.7545 26.4568 39.3997 26.4568 39.0045V35.4971C26.4568 34.9275 25.9935 34.4642 25.4239 34.4642H20.5485C19.9789 34.4642 19.5156 34.9275 19.5156 35.4971V39.0045C19.5156 39.3997 19.7357 39.7545 20.0901 39.93C20.0901 39.93 22.5271 41.1369 22.5275 41.1369ZM25.2842 38.7223H25.2839H25.2842ZM20.8633 35.8119H25.1091V38.809L22.9862 39.8601L20.8633 38.809V35.8119Z" fill="#0062AA"/>
</svg>
