<svg width="19" height="23" viewBox="0 0 19 23" fill="none" xmlns="http://www.w3.org/2000/svg">
<path d="M18.5704 15.9792C18.4944 15.8617 18.3708 15.7833 18.2321 15.7645C16.4073 15.5262 15.1212 13.8537 15.3596 12.0289C15.528 10.74 16.4305 9.66662 17.6715 9.27953C17.9235 9.19876 18.0623 8.929 17.9816 8.67699C17.969 8.63778 17.9514 8.60031 17.9293 8.56554C17.0919 7.0543 15.603 6.01495 13.8957 5.75C13.0354 5.79106 12.1875 5.97268 11.3858 6.28762C10.8101 6.51933 10.2021 6.66123 9.58324 6.70831C8.96435 6.66123 8.35638 6.51933 7.78063 6.28762C6.97896 5.97268 6.13111 5.79106 5.27077 5.75C3.4816 5.75 0 8.28667 0 12.9374C0 17.3572 3.22379 22.9999 5.74995 22.9999C6.71383 23.0085 7.66612 22.7891 8.52911 22.3597C8.85412 22.1804 9.21335 22.072 9.58328 22.0415C9.95317 22.072 10.3124 22.1804 10.6375 22.3597C11.5004 22.7891 12.4527 23.0085 13.4166 22.9999C15.4195 22.9999 17.6802 19.5614 18.627 16.375C18.6666 16.2411 18.646 16.0966 18.5704 15.9792Z" fill="white"/>
<path d="M9.10413 5.74995C12.0138 5.74676 14.3718 3.38883 14.3749 0.479177C14.3749 0.214545 14.1604 0 13.8958 0C10.9861 0.00318943 8.62814 2.36112 8.625 5.27077C8.62496 5.53541 8.8395 5.74995 9.10413 5.74995Z" fill="white"/>
</svg>
