<svg width="64" height="64" viewBox="0 0 64 64" fill="none" xmlns="http://www.w3.org/2000/svg">
<path d="M32 0C14.3545 0 0 14.3545 0 32C0 49.6455 14.3545 64 32 64C49.6455 64 64 49.6455 64 32C64 14.3545 49.6455 0 32 0Z" fill="#008ED1"/>
<path d="M48.2188 25.2188L30.8853 42.5518C30.3652 43.0718 29.6826 43.3335 29 43.3335C28.3174 43.3335 27.6348 43.0718 27.1147 42.5518L18.4482 33.8853C17.4053 32.8428 17.4053 31.1572 18.4482 30.1147C19.4907 29.0718 21.1758 29.0718 22.2188 30.1147L29 36.896L44.4482 21.4482C45.4907 20.4053 47.1758 20.4053 48.2188 21.4482C49.2612 22.4907 49.2612 24.1758 48.2188 25.2188Z" fill="#FAFAFA"/>
</svg>
