<svg width="19" height="20" viewBox="0 0 19 20" fill="none" xmlns="http://www.w3.org/2000/svg">
<path d="M18.6599 9.99667C18.6599 10.6215 18.3101 11.1713 17.8019 11.4545L13.4701 13.862L9.80469 9.99667L13.4701 6.13135L17.8019 8.53884C18.3101 8.82208 18.6599 9.37189 18.6599 9.99667Z" fill="#FFC107"/>
<path d="M9.80374 9.99667L0.806866 19.485C0.506971 19.1852 0.332031 18.777 0.332031 18.3271V1.66623C0.332031 1.21639 0.506971 0.808197 0.806866 0.508301L9.80374 9.99667Z" fill="#03A9F4"/>
<path d="M9.80547 9.99658L13.4709 13.8619C2.49717 19.8806 2.03733 20.782 0.808594 19.485L9.80547 9.99658Z" fill="#F44336"/>
<path d="M13.4709 6.13125L9.80547 9.99657L0.808594 0.508199C1.32342 -0.0357784 2.14896 -0.154904 2.8079 0.208304L13.4709 6.13125Z" fill="#4CAF50"/>
</svg>
