<svg width="68" height="68" viewBox="0 0 68 68" fill="none" xmlns="http://www.w3.org/2000/svg">
<path d="M47.4481 22.0952H20.5508L33.9994 33.6227L47.4481 22.0952Z" fill="#008ED1"/>
<path d="M33.9996 36.381C33.7154 36.381 33.4404 36.2793 33.2248 36.0938L18.5234 23.4927V45.9048H49.4758V23.4927L34.7745 36.0938C34.5588 36.2793 34.2839 36.381 33.9996 36.381Z" fill="#008ED1"/>
<path d="M33.9993 0.666748C15.59 0.666748 0.666016 15.5907 0.666016 34.0001C0.666016 52.4094 15.59 67.3334 33.9993 67.3334C52.4087 67.3334 67.3327 52.4094 67.3327 34.0001C67.3118 15.5994 52.4 0.687674 33.9993 0.666748ZM51.8565 47.0953C51.8565 47.7528 51.3235 48.2858 50.666 48.2858H17.3327C16.6752 48.2858 16.1422 47.7528 16.1422 47.0953V20.9048C16.1422 20.2474 16.6752 19.7144 17.3327 19.7144H50.666C51.3235 19.7144 51.8565 20.2474 51.8565 20.9048V47.0953Z" fill="#008ED1"/>
</svg>
