<svg width="37" height="46" viewBox="0 0 37 46" fill="none" xmlns="http://www.w3.org/2000/svg">
<path d="M18.0094 13.631C17.6374 13.631 17.3359 13.9324 17.3359 14.3048V16.2831C17.3359 16.826 17.7778 17.2679 18.3207 17.2679H18.9724C19.3448 17.2679 19.6463 16.9664 19.6463 16.5941C19.6463 16.2221 19.3448 15.9206 18.9724 15.9206H18.6832V14.3048C18.6832 13.9324 18.3818 13.631 18.0094 13.631Z" fill="#0062AA"/>
<path d="M14.8665 18.8808C14.5517 19.0798 14.4583 19.496 14.6573 19.8105C15.3406 20.8904 16.6921 21.5614 18.1851 21.5614C19.6777 21.5614 21.0295 20.8904 21.7128 19.8105C21.9118 19.496 21.8181 19.0798 21.504 18.8808C21.1896 18.6822 20.7733 18.7755 20.574 19.09C20.1423 19.7726 19.2042 20.2137 18.1851 20.2137C17.1656 20.2137 16.2278 19.7726 15.7958 19.09C15.5968 18.7755 15.1806 18.6822 14.8665 18.8808Z" fill="#0062AA"/>
<path d="M22.041 13.3661C22.041 13.7381 22.3425 14.0396 22.7148 14.0396C23.0869 14.0396 23.3883 13.7381 23.3883 13.3661V12.4645C23.3883 12.0925 23.0869 11.7906 22.7148 11.7906C22.3425 11.7906 22.041 12.0925 22.041 12.4645V13.3661Z" fill="#0062AA"/>
<path d="M13.6562 11.7906C13.2839 11.7906 12.9824 12.0925 12.9824 12.4645V13.3661C12.9824 13.7381 13.2839 14.0396 13.6562 14.0396C14.0283 14.0396 14.3297 13.7381 14.3297 13.3661V12.4645C14.3297 12.0925 14.0283 11.7906 13.6562 11.7906Z" fill="#0062AA"/>
<path d="M21.6775 5.93079H14.6914C14.3194 5.93079 14.0176 6.2326 14.0176 6.60461C14.0176 6.97662 14.3194 7.27844 14.6914 7.27844H21.6775C22.0498 7.27844 22.3513 6.97662 22.3513 6.60461C22.3513 6.2326 22.0495 5.93079 21.6775 5.93079Z" fill="#0062AA"/>
<path d="M20.8095 9.01916C20.8095 8.64716 20.5081 8.34534 20.1357 8.34534H16.2324C15.8601 8.34534 15.5586 8.64716 15.5586 9.01916C15.5586 9.39117 15.8601 9.69299 16.2324 9.69299H20.1357C20.5081 9.69299 20.8095 9.39117 20.8095 9.01916Z" fill="#0062AA"/>
<path d="M32.8116 30.1703C32.0465 29.7818 27.4873 27.9993 25.9771 27.6241L23.9212 26.0157C23.916 26.0115 23.9111 26.0077 23.9058 26.0038C23.5236 25.7223 23.0677 25.6058 22.6259 25.6514V24.3736C23.0923 24.1238 23.557 23.8367 24.0069 23.5117C25.6964 22.2904 27.7105 20.139 27.7105 16.8257L27.7119 16.1171C29.1571 16.0213 30.3037 14.8144 30.3037 13.3446V12.349C30.3037 11.4284 29.8541 10.611 29.1627 10.105C29.3898 9.87229 29.5856 9.57854 29.7246 9.21039C30.0787 8.26984 30.0208 6.93061 29.566 5.53628C29.0831 4.05631 28.2295 2.76095 27.1619 1.88848C23.8777 -0.794901 20.1618 0.0944116 19.3529 0.333761C18.9648 0.286032 18.5727 0.261816 18.1842 0.261816C17.7968 0.261816 17.4048 0.286032 17.0163 0.333761C16.2073 0.0944116 12.4914 -0.794901 9.20723 1.88883C8.13998 2.76095 7.28612 4.05631 6.80356 5.53628C6.34872 6.93096 6.29082 8.26984 6.64493 9.21039C6.78355 9.57854 6.97974 9.87229 7.20645 10.105C6.51543 10.611 6.06551 11.4284 6.06551 12.349V13.3446C6.06551 14.8144 7.21207 16.0213 8.65729 16.1171L8.65869 16.8246C8.65869 20.139 10.6728 22.2904 12.3623 23.5117C12.8122 23.837 13.2769 24.1238 13.7433 24.3736V25.6511C13.3021 25.6062 12.847 25.7227 12.4655 26.0038C12.4613 26.007 12.457 26.0098 12.4532 26.0133L10.3569 27.6329C8.85873 28.007 4.32162 29.7822 3.55725 30.1703C1.3631 31.2842 0 33.5047 0 35.9656V44.4333C0 45.297 0.702957 46 1.56665 46H34.8022C35.6662 46 36.3692 45.297 36.3692 44.4333V35.9656C36.3692 33.5047 35.0061 31.2842 32.8116 30.1703ZM23.1 27.084L24.7537 28.378L22.3764 31.7215L19.3231 29.8664L22.4883 27.1135C22.6624 26.9623 22.913 26.9503 23.1 27.084ZM21.5934 32.8228L18.1523 37.6624C18.1126 37.7186 18.0575 37.7295 18.0214 37.7295C17.9835 37.7291 17.9301 37.7168 17.8915 37.66L14.6456 32.9028L18.1856 30.7522L21.5934 32.8228ZM15.0909 26.3783V24.9969C16.2659 25.4588 17.3676 25.6855 18.1719 25.7006H18.1846H18.1972C19.0016 25.6855 20.1032 25.4588 21.2782 24.9969V26.3804L18.1856 29.0697L15.0909 26.3783ZM28.9564 13.3446C28.9564 14.07 28.4141 14.6712 27.7143 14.7635L27.7217 10.9311C28.418 11.0266 28.9564 11.626 28.9564 12.349V13.3446ZM26.3095 2.93221C28.2344 4.50518 28.9321 7.49038 28.4636 8.73555C28.2745 9.23777 27.8831 9.43886 27.5673 9.51818C27.3644 8.77135 26.9261 7.40439 26.1238 5.93075C25.0162 3.89698 23.5791 2.34472 21.8963 1.34556C23.1653 1.3617 24.7941 1.69405 26.3095 2.93221ZM7.41316 13.3446V12.349C7.41316 11.6263 7.95117 11.0269 8.64781 10.9315L8.65483 14.7635C7.95503 14.6712 7.41316 14.07 7.41316 13.3446ZM7.9059 8.73555C7.43703 7.49038 8.13507 4.50518 10.06 2.93221C11.5758 1.6937 13.2042 1.36135 14.4733 1.34556C12.7905 2.34472 11.3533 3.89663 10.2457 5.93075C9.44377 7.40299 9.00578 8.7689 8.80258 9.51607C8.48743 9.43606 8.09401 9.23461 7.9059 8.73555ZM10.0063 16.8232L9.99406 10.3071C10.1523 9.60416 11.7393 3.17998 17.065 1.68633C17.4371 1.63544 17.8133 1.60947 18.1846 1.60912C18.5566 1.60947 18.9332 1.63544 19.3048 1.68633C24.6151 3.17612 26.2154 9.60276 26.3755 10.3071L26.3632 16.8246C26.3632 21.9233 20.45 24.3027 18.1849 24.3533C15.9195 24.3027 10.0063 21.9233 10.0063 16.8232ZM13.2699 27.0851C13.4573 26.9503 13.7085 26.9619 13.883 27.1135L17.0482 29.8664L13.8847 31.7885L11.5712 28.3976L13.2699 27.0851ZM35.0219 44.4333C35.0219 44.5541 34.9232 44.6523 34.8025 44.6523H30.841V42.5944C30.841 42.222 30.5392 41.9205 30.1671 41.9205C29.7948 41.9205 29.4933 42.222 29.4933 42.5944V44.6523H6.87585V36.0021C6.87585 35.6301 6.57439 35.3283 6.20203 35.3283C5.83002 35.3283 5.52855 35.6301 5.52855 36.0021V44.6523H1.567C1.44592 44.6523 1.34766 44.5541 1.34766 44.4333V35.9652C1.34766 34.015 2.42824 32.2546 4.16756 31.3716C4.61116 31.1463 5.06634 30.9294 5.52855 30.7227V32.8653C5.52855 33.2373 5.83002 33.5391 6.20203 33.5391C6.57439 33.5391 6.87585 33.2373 6.87585 32.8653V30.157C8.01329 29.7109 9.18371 29.3301 10.3654 29.0216L16.7787 38.4198C17.0563 38.8265 17.516 39.0722 18.0084 39.0768C18.0133 39.0771 18.0179 39.0771 18.0228 39.0771C18.5099 39.0771 18.9679 38.8409 19.2508 38.4433L25.9578 29.0097C27.1553 29.3203 28.3408 29.7049 29.4933 30.157V39.4572C29.4933 39.8292 29.7948 40.131 30.1671 40.131C30.5392 40.131 30.8406 39.8292 30.8406 39.4572V30.7227C31.3025 30.9291 31.7577 31.1463 32.202 31.3716C33.9409 32.2546 35.0215 34.015 35.0215 35.9652V44.4333H35.0219Z" fill="#0062AA"/>
</svg>
