<svg width="43" height="46" viewBox="0 0 43 46" fill="none" xmlns="http://www.w3.org/2000/svg">
<path d="M15.6836 14.2552V16.0451C15.6836 16.5719 16.1121 17.0004 16.6389 17.0004H17.2288C17.6008 17.0004 17.9027 16.6989 17.9027 16.3266C17.9027 15.9542 17.6008 15.6527 17.2288 15.6527H17.0313V14.2552C17.0313 13.8829 16.7298 13.5814 16.3574 13.5814C15.9851 13.5814 15.6836 13.8832 15.6836 14.2552Z" fill="#0062AA"/>
<path d="M14.4097 18.5502C14.2103 18.2358 13.7941 18.1424 13.4797 18.3414C13.1652 18.5404 13.0715 18.9566 13.2705 19.2711C13.9005 20.2664 15.1442 20.8848 16.5168 20.8848C17.889 20.8848 19.1332 20.2664 19.7628 19.2711C19.9618 18.9566 19.8681 18.5404 19.5536 18.3414C19.2391 18.1424 18.8229 18.2361 18.6239 18.5502C18.2445 19.15 17.4174 19.5371 16.5168 19.5371C15.6159 19.5371 14.7887 19.15 14.4097 18.5502Z" fill="#0062AA"/>
<path d="M20.6136 14.0795C20.9856 14.0795 21.2875 13.7781 21.2875 13.4057V12.5905C21.2875 12.2181 20.9856 11.9166 20.6136 11.9166C20.2413 11.9166 19.9395 12.2181 19.9395 12.5905V13.4057C19.9395 13.7781 20.2413 14.0795 20.6136 14.0795Z" fill="#0062AA"/>
<path d="M12.418 11.9166C12.0456 11.9166 11.7441 12.2181 11.7441 12.5905V13.4057C11.7441 13.7781 12.0456 14.0795 12.418 14.0795C12.7903 14.0795 13.0918 13.7781 13.0918 13.4057V12.5905C13.0918 12.2181 12.79 11.9166 12.418 11.9166Z" fill="#0062AA"/>
<path d="M0.673828 37.3385C1.04619 37.3385 1.34766 37.0367 1.34766 36.6647V33.8521C1.34766 32.1118 2.31172 30.5413 3.86363 29.7534C4.87648 29.2392 5.92407 28.7861 6.99588 28.398C6.99588 28.398 6.46349 29.003 6.46314 29.0037C6.01883 29.5087 6.22765 30.3317 6.85726 30.5651L9.68067 31.6113L9.08159 32.562C8.84049 32.9449 8.89208 33.4387 9.20723 33.7633C9.20723 33.7633 16.0294 40.7957 16.0326 40.7992C16.2937 41.0684 16.7418 41.067 17.0015 40.7975L21.6309 36.0252C21.8812 36.5562 22.2262 37.0437 22.6564 37.4662C23.5998 38.3931 24.8478 38.9034 26.1702 38.9034H28.9609C28.9609 39.4765 29.427 39.9938 29.9998 39.9938H33.5963C34.1691 39.9938 34.6351 39.5986 34.6351 38.9034H37.4259C38.7483 38.9034 39.9963 38.3931 40.9396 37.4662C41.8816 36.5411 42.4143 35.3051 42.44 33.9858C42.4403 33.9767 42.4403 33.9679 42.44 33.9588C42.4094 32.4796 41.1814 31.2761 39.7029 31.2761H35.6848V29.9706C35.6848 29.0518 34.8857 28.3039 33.9037 28.3039C33.9037 28.3039 29.4568 28.3148 29.3445 28.3359C28.8392 28.0898 28.3264 27.8586 27.807 27.6417V8.47161C27.807 6.09672 26.8012 3.81623 25.0475 2.21519C23.2938 0.614141 20.9315 -0.180766 18.5664 0.0347188C17.1907 0.160009 15.8571 0.161413 14.4656 0.0347188C12.1001 -0.180766 9.73857 0.614141 7.98487 2.21519C6.23116 3.81658 5.22533 6.09672 5.22533 8.47161V27.6417C4.55641 27.9207 3.89803 28.2246 3.25368 28.5517C1.24658 29.5705 0 31.6015 0 33.8521V36.6647C0 37.0367 0.301468 37.3385 0.673828 37.3385ZM10.3773 33.0341C10.3773 33.0341 11.0638 31.9444 11.0645 31.9433C11.3905 31.4256 11.1491 30.7181 10.5774 30.5065L7.83115 29.4887L9.64627 27.4262C9.83017 27.217 10.0902 27.0538 10.3987 26.9545C10.915 26.7878 11.5428 26.6917 11.9808 26.6401L15.151 37.9551L10.3773 33.0341ZM23.8704 10.2039L23.8469 16.347C23.8469 19.0061 22.3076 20.7406 21.0164 21.7271C19.4245 22.9435 17.5722 23.5243 16.5162 23.552C15.4602 23.5243 13.6078 22.9435 12.0159 21.7271C10.7248 20.7406 9.18512 19.0061 9.18512 16.3445L9.16161 10.2039C10.504 9.98808 13.7707 9.23107 16.5162 6.75967C19.2617 9.23107 22.5283 9.98808 23.8704 10.2039ZM16.5018 24.8997H16.5162H16.5306C17.2476 24.8843 18.2165 24.6786 19.2508 24.2634C19.2508 25.0492 19.4466 25.5904 19.8088 26.0792L18.2716 31.566C17.1672 32.0939 15.8651 32.0939 14.7604 31.566L13.2232 26.0792C13.5854 25.5904 13.8198 25.0267 13.7815 24.2634C14.8158 24.6786 15.7848 24.8843 16.5018 24.8997ZM16.5162 37.8323L15.204 33.1488C16.0638 33.3619 16.9682 33.3619 17.828 33.1488H17.8284L16.5162 37.8323ZM17.8814 37.9551L21.0515 26.6401C21.4885 26.6913 22.1153 26.7875 22.6336 26.9545C22.9418 27.0542 23.2018 27.217 23.3857 27.4262L25.2008 29.4891C25.2008 29.4891 22.4588 30.5051 22.455 30.5065C21.8215 30.7409 21.685 31.4944 22.0198 32.0261C22.0198 32.0261 21.0077 32.8937 21.1965 34.5375L17.8814 37.9551ZM28.0934 29.2364C27.9765 29.4579 27.9109 29.7074 27.9109 29.9706V31.2761H24.2564C24.2564 31.2761 26.1726 30.5658 26.1747 30.5651C26.7998 30.3335 27.0082 29.5028 26.5692 29.0034L26.0364 28.398C26.7331 28.6503 27.4199 28.93 28.0934 29.2364ZM30.8947 31.2761H29.2589C29.2589 30.0075 29.2582 29.8615 29.3031 29.8264C29.6225 29.966 29.9261 30.2194 30.1815 30.4521C30.4507 30.6971 30.6908 30.9743 30.8947 31.2761ZM33.2875 38.6461H30.3082V37.8133H33.2875V38.6461ZM41.0923 33.9739C41.046 35.9505 39.4042 37.5557 37.4256 37.5557H34.6351C34.6351 36.8956 34.1687 36.4657 33.596 36.4657H29.9998C29.4266 36.4657 28.9606 36.8917 28.9606 37.5557H26.1702C24.1915 37.5557 22.5497 35.9505 22.5034 33.9739C22.5255 33.2281 23.1464 32.6238 23.8928 32.6238H39.7029C40.4494 32.6238 41.0698 33.2281 41.0923 33.9739ZM34.3372 29.9706V31.2761H32.4445C32.1532 30.67 31.764 30.1219 31.2944 29.6516H33.9037C34.1385 29.6516 34.3372 29.7979 34.3372 29.9706ZM24.302 26.4327C23.969 26.0919 23.5384 25.8304 23.0477 25.6721C22.2753 25.423 21.347 25.3107 20.8848 25.2671C20.6988 25.0109 20.5984 24.7039 20.5984 24.3817V23.6138C21.0168 23.3766 21.4327 23.1049 21.8345 22.7982C23.3675 21.6267 25.1945 19.5568 25.1945 16.3494L25.1963 15.9648C25.1963 15.9648 25.6823 16.0059 26.4593 15.6521V27.1181C25.7494 26.8619 25.0292 26.633 24.302 26.4327ZM26.4593 13.3867C26.4593 14.0651 25.908 14.6171 25.23 14.6171H25.2012L25.2142 11.2554H25.23C25.9076 11.2554 26.4593 11.8074 26.4593 12.4858V13.3867ZM8.89348 3.21049C10.3682 1.86388 12.3553 1.19602 14.3434 1.37676C15.802 1.50942 17.2142 1.51118 18.6889 1.37676C20.6767 1.19637 22.6638 1.86388 24.1385 3.21049C25.6136 4.55709 26.4593 6.47469 26.4593 8.47161V10.2208C26.0937 10.0211 25.6746 9.90771 25.23 9.90771H25.2191V9.89508C25.2208 9.39953 24.8523 8.97769 24.3617 8.91381C23.3745 8.78466 19.939 8.16137 17.1935 5.55064C16.8134 5.18951 16.2182 5.18951 15.8381 5.55064C13.0926 8.16137 9.65751 8.78466 8.67028 8.91381C8.17929 8.97769 7.81079 9.39988 7.81255 9.89508V9.90771H7.80202C7.35736 9.90771 6.93833 10.0211 6.57263 10.2208V8.47161C6.57299 6.47469 7.41878 4.55709 8.89348 3.21049ZM6.57299 12.4858C6.57299 11.8074 7.12433 11.2554 7.80237 11.2554H7.81816L7.8308 14.6171H7.80237C7.12433 14.6171 6.57299 14.0651 6.57299 13.3867V12.4858ZM6.57299 15.6521C7.10784 15.9953 7.83606 15.9648 7.83606 15.9648L7.83747 16.347C7.83747 19.5568 9.66488 21.6267 11.1975 22.7982C11.5997 23.1049 12.0156 23.3766 12.4339 23.6138V24.3817C12.4339 24.7039 12.3332 25.0109 12.1472 25.2671C11.6853 25.3107 10.757 25.423 9.98459 25.6721C9.49396 25.8304 9.06334 26.0919 8.73029 26.4327C8.00276 26.633 7.28296 26.8619 6.57299 27.1181V15.6521Z" fill="#0062AA"/>
<path d="M41.7686 37.8373C41.3962 37.8373 41.0948 38.1387 41.0948 38.5111V43.2605C41.0948 44.0281 40.4704 44.6524 39.7029 44.6524H23.8928C23.1257 44.6524 22.5013 44.0281 22.5013 43.2605V38.5111C22.5013 38.1387 22.1995 37.8373 21.8275 37.8373C21.4551 37.8373 21.1537 38.1387 21.1537 38.5111V43.2605C21.1537 43.7684 21.2923 44.2443 21.5341 44.6524H6.36768V39.3C6.36768 38.928 6.06621 38.6262 5.69385 38.6262C5.32149 38.6262 5.02002 38.928 5.02002 39.3V44.6524H1.72318C1.51611 44.6524 1.34766 44.484 1.34766 44.2766V39.8019C1.34766 39.4296 1.04619 39.1281 0.673828 39.1281C0.301468 39.1281 0 39.4296 0 39.8019V44.2766C0 45.2269 0.773148 46.0001 1.72318 46.0001H39.7029C41.2134 46.0001 42.4421 44.771 42.4421 43.2605V38.5111C42.4424 38.1387 42.1406 37.8373 41.7686 37.8373Z" fill="#0062AA"/>
</svg>
